PathFileType	4	(X/Y/Z)	C:\Users\86182\Documents\cortex\Trimmed_M3_L5.trc
DataRate	CameraRate	NumFrames	NumMarkers	Units	OrigDataRate	OrigDataStartFrame	OrigNumFrames
100.00	100.00	       115	2	mm	100.00	1	       901
Frame#	Time	gripper			box			
		X1	Y1	Z1	X2	Y2	Z2	

1	0.000	274.71820	148.68904	192.95390	277.24994	146.93784	57.62708	
2	0.010	274.69547	148.68637	192.96260	277.24945	146.95938	57.63079	
3	0.020	274.69531	148.67580	192.96547	277.25418	146.95242	57.62911	
4	0.030	274.70285	148.69177	192.95857	277.19977	146.94962	57.63415	
5	0.040	274.65390	148.70100	192.97328	277.23959	146.92686	57.62627	
6	0.050	274.68805	148.68097	192.96663	277.28171	146.94492	57.62935	
7	0.060	274.68280	148.67049	192.95256	277.23752	146.92804	57.62668	
8	0.070	274.67596	148.68262	192.97046	277.28830	146.96298	57.62748	
9	0.080	274.68564	148.67920	192.96796	277.27853	146.94279	57.62503	
10	0.090	274.67331	148.68958	192.95546	277.22943	146.95377	57.63403	
11	0.100	274.69220	148.68752	192.96342	277.22809	146.94183	57.62996	
12	0.110	274.67084	148.68323	192.96976	277.25659	146.92978	57.62504	
13	0.120	274.69852	148.67467	192.96465	277.23544	146.92921	57.62710	
14	0.130	274.69852	148.67467	192.96465	277.27060	146.95959	57.63379	
15	0.140	274.69852	148.67467	192.96465	277.22296	146.93636	57.62958	
16	0.150	274.67917	148.68149	192.96962	277.24307	146.93330	57.62788	
17	0.160	274.66318	148.68712	192.97374	277.22687	146.95944	57.63566	
18	0.170	274.67203	148.68155	192.96745	277.28830	146.96298	57.62748	
19	0.180	274.69852	148.67467	192.96465	277.24857	146.95134	57.62997	
20	0.190	274.69852	148.67467	192.96465	277.23618	146.94150	57.62954	
21	0.200	274.66318	148.68712	192.97374	277.21759	146.94783	57.63204	
22	0.210	274.65680	148.68936	192.97539	277.23544	146.92921	57.62710	
23	0.220	274.68240	148.68034	192.96880	277.28027	146.95433	57.62984	
24	0.230	274.69852	148.67467	192.96465	277.23538	146.94617	57.62996	
25	0.240	274.67456	148.67827	192.96275	277.28238	146.94487	57.62542	
26	0.250	274.67917	148.68149	192.96962	277.24396	146.94548	57.63069	
27	0.260	274.68011	148.68909	192.96725	277.23611	146.94576	57.63152	
28	0.270	274.66638	148.68599	192.97292	277.23801	146.94040	57.62872	
29	0.280	274.71326	148.68542	192.95660	277.24493	146.94919	57.62996	
30	0.290	274.66959	148.68486	192.97209	277.23557	146.94604	57.63037	
31	0.300	274.67618	148.69315	192.96754	277.25552	146.94731	57.63031	
32	0.310	274.65781	148.69695	192.97299	277.23959	146.94376	57.62911	
33	0.320	274.66638	148.68599	192.97292	277.24130	146.93007	57.62709	
34	0.330	274.69208	148.67694	192.96631	277.27383	146.97118	57.63076	
35	0.340	274.70129	148.69765	192.95753	277.25101	146.94572	57.62833	
36	0.350	274.67535	148.67477	192.94695	277.24930	146.94667	57.62951	
37	0.360	274.69220	148.68752	192.96342	277.24371	146.94139	57.62831	
38	0.370	274.67917	148.68149	192.96962	277.25626	146.96835	57.63163	
39	0.380	274.68723	148.67740	192.93968	277.25201	146.93666	57.62666	
40	0.390	274.69852	148.67467	192.96465	277.25781	146.95882	57.63115	
41	0.400	274.66690	148.68216	192.96675	277.24164	146.92567	57.62587	
42	0.410	274.69562	148.67618	192.95592	277.22809	146.94183	57.62996	
43	0.420	274.70093	148.67644	192.96332	277.25418	146.95242	57.62911	
44	0.430	274.64215	148.69279	192.96086	277.24994	146.93784	57.62708	
45	0.440	274.68948	148.68993	192.96143	277.24579	146.94020	57.62790	
46	0.450	274.68240	148.68034	192.96880	277.25204	146.94505	57.63069	
47	0.460	274.68970	148.67920	192.93834	277.24576	146.92334	57.62504	
48	0.470	274.68405	148.68506	192.96695	277.25418	146.95242	57.62911	
49	0.480	274.68240	148.68034	192.96880	277.27823	146.95135	57.62825	
50	0.490	274.67203	148.68155	192.96745	277.24371	146.92450	57.62545	
51	0.500	274.65680	148.68936	192.97539	277.29630	146.96666	57.62944	
52	0.510	274.67917	148.68149	192.96962	277.26993	146.95609	57.62990	
53	0.520	274.64697	148.68675	192.96783	277.22510	146.93515	57.62913	
54	0.530	274.67596	148.68262	192.97046	277.28363	146.95674	57.62905	
55	0.540	274.66959	148.68486	192.97209	277.24512	146.93213	57.62747	
56	0.550	274.67511	148.67442	192.95656	277.23752	146.92804	57.62668	
57	0.560	274.68329	148.68797	192.96643	277.26102	146.93155	57.62658	
58	0.570	274.66959	148.68486	192.97209	277.24155	146.95961	57.63163	
59	0.580	274.68564	148.67920	192.96796	277.23349	146.94724	57.63078	
60	0.590	274.70340	148.67824	192.96198	277.25296	146.92763	57.62503	
61	0.600	274.65363	148.69048	192.97620	277.26071	146.93590	57.62784	
62	0.610	274.68781	148.68520	192.96326	277.24265	146.93350	57.62709	
63	0.620	274.69852	148.67467	192.96465	277.23849	146.95288	57.63080	
64	0.630	274.67447	148.68843	192.96941	277.23907	146.93137	57.62711	
65	0.640	274.68851	148.70215	192.96082	277.24579	146.95721	57.63079	
66	0.650	274.71252	148.68837	192.95609	277.27893	146.95964	57.62830	
67	0.660	274.69531	148.67580	192.96547	277.29257	146.96446	57.62944	
68	0.670	274.69809	148.71278	192.94524	277.28015	146.94614	57.62544	
69	0.680	274.70340	148.67824	192.96198	277.33176	146.98862	57.63264	
70	0.690	274.67575	148.70157	192.96077	277.28934	146.98274	57.63628	
71	0.700	274.71573	148.68724	192.95526	277.25763	146.95894	57.63076	
72	0.710	274.69638	148.69405	192.96024	277.28458	146.96478	57.62991	
73	0.720	274.70673	148.69145	192.93848	277.20782	146.94919	57.63372	
74	0.730	274.69299	148.69431	192.95432	277.23801	146.94040	57.62872	
75	0.740	274.69739	148.70169	192.95784	277.27127	146.96375	57.63192	
76	0.750	274.65579	148.68068	192.94516	277.23801	146.94040	57.62872	
77	0.760	274.67184	148.70053	192.95775	277.30225	146.98094	57.62912	
78	0.770	274.70038	148.68996	192.95992	277.26758	146.93629	57.62503	
79	0.780	274.66006	148.67241	192.94826	277.25055	146.95027	57.62910	
80	0.790	274.71820	148.68904	192.95390	277.30145	146.96840	57.62710	
81	0.800	274.66394	148.69891	192.96799	277.30890	146.97282	57.62708	
82	0.810	274.70441	148.69051	192.94661	277.28320	146.95714	57.62789	
83	0.820	274.66199	148.70348	192.96977	277.33829	146.97720	57.62701	
84	0.830	274.72217	148.70367	192.92737	277.27972	146.95068	57.62626	
85	0.840	274.68680	148.69742	192.96269	277.29565	146.97136	57.62989	
86	0.850	274.68820	148.69156	192.96375	277.28723	146.97629	57.63115	
87	0.860	274.70148	148.67773	192.96046	277.23694	146.94949	57.63037	
88	0.870	274.71027	148.69717	192.95453	277.26105	146.96541	57.63238	
89	0.880	274.71942	148.70738	192.94859	277.29321	146.97697	57.63154	
90	0.890	274.67065	148.70174	192.94368	277.27158	146.97252	57.63081	
91	0.900	274.68973	148.68570	192.96478	277.30167	146.95480	57.62819	
92	0.910	274.65363	148.69048	192.97620	277.26416	146.96811	57.63079	
93	0.920	274.73172	148.71561	192.93500	277.24600	146.94009	57.62831	
94	0.930	274.73303	148.69987	192.94582	277.27719	146.96455	57.63189	
95	0.940	274.69247	148.69810	192.96053	277.23593	146.94159	57.62913	
96	0.950	274.70776	148.69537	192.95587	277.31216	146.98355	57.63030	
97	0.960	274.69000	148.69629	192.96187	277.31766	146.96732	57.62742	
98	0.970	274.70972	148.69456	192.93422	277.28116	146.95831	57.62828	
99	0.980	274.66321	148.69168	192.96080	277.31210	146.96208	57.62622	
100	0.990	274.66397	148.67859	192.95465	277.28827	146.96696	57.62991	
101	1.000	274.67886	148.66943	192.94952	277.26523	146.95897	57.62911	
102	1.010	274.70532	148.69357	192.95721	277.25772	146.93764	57.62626	
103	1.020	274.65265	148.69250	192.96899	277.23752	146.92804	57.62668	
104	1.030	274.64352	148.68188	192.95860	277.23544	146.92921	57.62710	
105	1.040	274.60004	148.68990	192.95761	277.22717	146.93396	57.62872	
106	1.050	274.59964	148.69368	192.96381	277.20615	146.94595	57.63289	
107	1.060	274.62521	148.70049	192.98351	277.18292	146.95702	57.63959	
108	1.070	274.61429	148.68544	193.02429	277.14319	146.98843	57.65808	
109	1.080	274.49042	148.75279	193.21184	277.25613	147.12997	57.69619	
110	1.090	274.32361	148.83156	193.34222	277.22702	147.16544	57.71548	
111	1.100	274.20789	148.88783	193.46700	277.22702	147.16544	57.71548	
112	1.110	274.30643	148.93195	193.51434	277.22702	147.16544	57.71548	
113	1.120	274.26743	148.90388	193.53445	277.24811	147.17249	57.72545	
114	1.130	274.25443	148.89395	193.54286	277.62213	147.07877	57.61268	
115	1.140	274.13849	148.86670	193.61867	277.65350	147.05646	57.74236	
